<svg width="46" height="46" viewBox="0 0 46 46" fill="none" xmlns="http://www.w3.org/2000/svg">
<rect y="1" width="44" height="44" rx="22" fill="#00D066"/>
<path d="M30.4833 23.2727C30.4833 25.2159 30.1055 26.8551 29.3498 28.1903C28.5941 29.5199 27.5742 30.5284 26.2901 31.2159C25.006 31.8977 23.5742 32.2386 21.9947 32.2386C20.4038 32.2386 18.9663 31.8949 17.6822 31.2074C16.4038 30.5142 15.3867 29.5028 14.631 28.1733C13.881 26.8381 13.506 25.2045 13.506 23.2727C13.506 21.3295 13.881 19.6932 14.631 18.3636C15.3867 17.0284 16.4038 16.0199 17.6822 15.3381C18.9663 14.6506 20.4038 14.3068 21.9947 14.3068C23.5742 14.3068 25.006 14.6506 26.2901 15.3381C27.5742 16.0199 28.5941 17.0284 29.3498 18.3636C30.1055 19.6932 30.4833 21.3295 30.4833 23.2727ZM25.6083 23.2727C25.6083 22.2273 25.4691 21.3466 25.1907 20.6307C24.918 19.9091 24.5117 19.3636 23.9719 18.9943C23.4379 18.6193 22.7788 18.4318 21.9947 18.4318C21.2106 18.4318 20.5487 18.6193 20.0089 18.9943C19.4748 19.3636 19.0685 19.9091 18.7901 20.6307C18.5174 21.3466 18.381 22.2273 18.381 23.2727C18.381 24.3182 18.5174 25.2017 18.7901 25.9233C19.0685 26.6392 19.4748 27.1847 20.0089 27.5597C20.5487 27.929 21.2106 28.1136 21.9947 28.1136C22.7788 28.1136 23.4379 27.929 23.9719 27.5597C24.5117 27.1847 24.918 26.6392 25.1907 25.9233C25.4691 25.2017 25.6083 24.3182 25.6083 23.2727Z" fill="white"/>
</svg>
