<svg width="138" height="46" viewBox="0 0 138 46" fill="none" xmlns="http://www.w3.org/2000/svg">
<rect y="1" width="44" height="44" rx="22" fill="#00D066"/>
<path d="M30.4833 23.2727C30.4833 25.2159 30.1055 26.8551 29.3498 28.1903C28.5941 29.5199 27.5742 30.5284 26.2901 31.2159C25.006 31.8977 23.5742 32.2386 21.9947 32.2386C20.4038 32.2386 18.9663 31.8949 17.6822 31.2074C16.4038 30.5142 15.3867 29.5028 14.631 28.1733C13.881 26.8381 13.506 25.2045 13.506 23.2727C13.506 21.3295 13.881 19.6932 14.631 18.3636C15.3867 17.0284 16.4038 16.0199 17.6822 15.3381C18.9663 14.6506 20.4038 14.3068 21.9947 14.3068C23.5742 14.3068 25.006 14.6506 26.2901 15.3381C27.5742 16.0199 28.5941 17.0284 29.3498 18.3636C30.1055 19.6932 30.4833 21.3295 30.4833 23.2727ZM25.6083 23.2727C25.6083 22.2273 25.4691 21.3466 25.1907 20.6307C24.918 19.9091 24.5117 19.3636 23.9719 18.9943C23.4379 18.6193 22.7788 18.4318 21.9947 18.4318C21.2106 18.4318 20.5487 18.6193 20.0089 18.9943C19.4748 19.3636 19.0685 19.9091 18.7901 20.6307C18.5174 21.3466 18.381 22.2273 18.381 23.2727C18.381 24.3182 18.5174 25.2017 18.7901 25.9233C19.0685 26.6392 19.4748 27.1847 20.0089 27.5597C20.5487 27.929 21.2106 28.1136 21.9947 28.1136C22.7788 28.1136 23.4379 27.929 23.9719 27.5597C24.5117 27.1847 24.918 26.6392 25.1907 25.9233C25.4691 25.2017 25.6083 24.3182 25.6083 23.2727Z" fill="white"/>
<path d="M51.9908 30V16.9091H57.4496C58.4297 16.9091 59.25 17.0476 59.9105 17.3246C60.5753 17.6016 61.0739 17.9893 61.4062 18.4879C61.7429 18.9865 61.9112 19.5639 61.9112 20.2202C61.9112 20.7188 61.8068 21.1641 61.598 21.5561C61.3892 21.9439 61.1016 22.2656 60.7351 22.5213C60.3686 22.777 59.9446 22.956 59.4631 23.0582V23.1861C59.9915 23.2116 60.4794 23.3544 60.9268 23.6143C61.3786 23.8743 61.7408 24.2365 62.0135 24.701C62.2862 25.1612 62.4226 25.7067 62.4226 26.3374C62.4226 27.0405 62.2436 27.669 61.8857 28.223C61.5277 28.7727 61.0099 29.2074 60.3324 29.527C59.6548 29.8423 58.8324 30 57.8651 30H51.9908ZM55.1548 27.4496H57.1108C57.7969 27.4496 58.3018 27.3196 58.6257 27.0597C58.9538 26.7997 59.1179 26.4375 59.1179 25.973C59.1179 25.6364 59.0391 25.3466 58.8814 25.1037C58.7237 24.8565 58.5 24.6669 58.2102 24.5348C57.9205 24.3984 57.5732 24.3303 57.1683 24.3303H55.1548V27.4496ZM55.1548 22.2912H56.9062C57.2514 22.2912 57.5582 22.2337 57.8267 22.1186C58.0952 22.0036 58.304 21.8374 58.4531 21.62C58.6065 21.4027 58.6832 21.1406 58.6832 20.8338C58.6832 20.3949 58.5277 20.0497 58.2166 19.7983C57.9055 19.5469 57.4858 19.4212 56.9574 19.4212H55.1548V22.2912ZM70.1784 25.7621V20.1818H73.2977V30H70.319V28.1719H70.2168C69.9994 28.7727 69.6287 29.25 69.1045 29.6037C68.5847 29.9531 67.9561 30.1278 67.2189 30.1278C66.5499 30.1278 65.9618 29.9744 65.4547 29.6676C64.9476 29.3608 64.5534 28.9325 64.2722 28.3828C63.9909 27.8288 63.8482 27.1811 63.8439 26.4396V20.1818H66.9696V25.826C66.9739 26.3587 67.1145 26.7784 67.3915 27.0852C67.6685 27.392 68.0456 27.5455 68.5229 27.5455C68.8339 27.5455 69.1131 27.4773 69.3602 27.3409C69.6116 27.2003 69.8098 26.9979 69.9547 26.7337C70.1038 26.4652 70.1784 26.1413 70.1784 25.7621ZM78.7732 30.1406C78.0488 30.1406 77.3904 29.9531 76.798 29.5781C76.2057 29.2031 75.7327 28.6406 75.379 27.8906C75.0253 27.1406 74.8485 26.2095 74.8485 25.0973C74.8485 23.9425 75.0317 22.9922 75.3982 22.2464C75.7647 21.5007 76.2441 20.9489 76.8364 20.5909C77.433 20.233 78.0743 20.054 78.7604 20.054C79.276 20.054 79.7171 20.1435 80.0836 20.3224C80.45 20.4972 80.7526 20.723 80.9912 21C81.2299 21.277 81.411 21.5646 81.5346 21.8629H81.5985V16.9091H84.7242V30H81.6304V28.4084H81.5346C81.4024 28.7109 81.2149 28.9943 80.9721 29.2585C80.7292 29.5227 80.4245 29.7358 80.058 29.8977C79.6958 30.0597 79.2675 30.1406 78.7732 30.1406ZM79.8598 27.7053C80.2391 27.7053 80.563 27.5987 80.8314 27.3857C81.0999 27.1683 81.3066 26.8636 81.4515 26.4716C81.5963 26.0795 81.6688 25.6193 81.6688 25.0909C81.6688 24.554 81.5963 24.0916 81.4515 23.7038C81.3108 23.3161 81.1042 23.0178 80.8314 22.8089C80.563 22.6001 80.2391 22.4957 79.8598 22.4957C79.4721 22.4957 79.1439 22.6023 78.8755 22.8153C78.607 23.0284 78.4024 23.3288 78.2618 23.7166C78.1255 24.1044 78.0573 24.5625 78.0573 25.0909C78.0573 25.6193 78.1276 26.0795 78.2682 26.4716C78.4088 26.8636 78.6113 27.1683 78.8755 27.3857C79.1439 27.5987 79.4721 27.7053 79.8598 27.7053ZM88.5121 33.6818C88.1371 33.6818 87.7835 33.652 87.4511 33.5923C87.1187 33.5369 86.8332 33.4624 86.5945 33.3686L87.2849 31.0994C87.5917 31.2017 87.8687 31.2614 88.1158 31.2784C88.3673 31.2955 88.5825 31.255 88.7614 31.157C88.9447 31.0632 89.0853 30.8949 89.1833 30.652L89.3048 30.358L85.8147 20.1818H89.0874L90.8964 27.1875H90.9987L92.8332 20.1818H96.1251L92.4241 30.9396C92.2451 31.4766 91.9915 31.9496 91.6634 32.3587C91.3396 32.772 90.9198 33.0959 90.4042 33.3303C89.8928 33.5646 89.2621 33.6818 88.5121 33.6818ZM100.349 24.4006V30H97.2236V20.1818H100.196V21.9844H100.305C100.522 21.3835 100.893 20.9126 101.417 20.5717C101.941 20.2266 102.565 20.054 103.29 20.054C103.98 20.054 104.579 20.2095 105.086 20.5206C105.597 20.8274 105.993 21.2578 106.275 21.8118C106.56 22.3615 106.701 23.005 106.697 23.7422V30H103.571V24.3558C103.575 23.8104 103.437 23.3842 103.155 23.0774C102.878 22.7706 102.493 22.6172 101.998 22.6172C101.67 22.6172 101.381 22.6896 101.129 22.8345C100.882 22.9751 100.69 23.1776 100.554 23.4418C100.422 23.706 100.354 24.0256 100.349 24.4006ZM111.351 27.424L111.363 23.6974H111.798L114.559 20.1818H118.101L113.997 25.2188H113.172L111.351 27.424ZM108.532 30V16.9091H111.657V30H108.532ZM114.63 30L112.06 25.9219L114.118 23.7038L118.241 30H114.63ZM125.454 25.7621V20.1818H128.573V30H125.594V28.1719H125.492C125.275 28.7727 124.904 29.25 124.38 29.6037C123.86 29.9531 123.232 30.1278 122.494 30.1278C121.825 30.1278 121.237 29.9744 120.73 29.6676C120.223 29.3608 119.829 28.9325 119.548 28.3828C119.266 27.8288 119.124 27.1811 119.119 26.4396V20.1818H122.245V25.826C122.249 26.3587 122.39 26.7784 122.667 27.0852C122.944 27.392 123.321 27.5455 123.798 27.5455C124.109 27.5455 124.388 27.4773 124.636 27.3409C124.887 27.2003 125.085 26.9979 125.23 26.7337C125.379 26.4652 125.454 26.1413 125.454 25.7621Z" fill="black"/>
</svg>
